<mxfile host="app.diagrams.net" modified="2023-11-25T09:31:16.991Z" agent="Mozilla/5.0 (Windows NT 10.0; Win64; x64) AppleWebKit/537.36 (KHTML, like Gecko) Chrome/119.0.0.0 Safari/537.36" etag="ozntQ3mt5NnsEE9KbKZ7" version="22.1.4" type="github">
  <diagram name="Page-1" id="5f0bae14-7c28-e335-631c-24af17079c00">
    <mxGraphModel dx="3149" dy="1964" grid="1" gridSize="10" guides="1" tooltips="1" connect="1" arrows="1" fold="1" page="1" pageScale="1" pageWidth="1100" pageHeight="850" background="none" math="0" shadow="0">
      <root>
        <mxCell id="0" />
        <mxCell id="1" parent="0" />
        <mxCell id="rUWtXKaS8bk8jJ0bzjvu-16" value="" style="group" vertex="1" connectable="0" parent="1">
          <mxGeometry x="260" y="160" width="560" height="220" as="geometry" />
        </mxCell>
        <mxCell id="rUWtXKaS8bk8jJ0bzjvu-2" value="&lt;div style=&quot;font-size: 14px;&quot;&gt;&lt;div style=&quot;border-color: var(--border-color);&quot;&gt;&lt;br&gt;&lt;/div&gt;&lt;/div&gt;" style="html=1;dropTarget=0;whiteSpace=wrap;fillColor=#d5e8d4;strokeColor=#82b366;align=left;" vertex="1" parent="rUWtXKaS8bk8jJ0bzjvu-16">
          <mxGeometry width="560" height="220" as="geometry" />
        </mxCell>
        <mxCell id="rUWtXKaS8bk8jJ0bzjvu-3" value="" style="shape=module;jettyWidth=8;jettyHeight=4;" vertex="1" parent="rUWtXKaS8bk8jJ0bzjvu-2">
          <mxGeometry x="1" width="20" height="20" relative="1" as="geometry">
            <mxPoint x="-27" y="7" as="offset" />
          </mxGeometry>
        </mxCell>
        <mxCell id="rUWtXKaS8bk8jJ0bzjvu-14" value="&lt;font style=&quot;font-size: 18px;&quot;&gt;&lt;b&gt;Сайт и заказы&lt;/b&gt;&lt;/font&gt;" style="text;html=1;strokeColor=none;fillColor=none;align=center;verticalAlign=middle;whiteSpace=wrap;rounded=0;" vertex="1" parent="rUWtXKaS8bk8jJ0bzjvu-16">
          <mxGeometry x="7.89" y="9.57" width="192.11" height="38.26" as="geometry" />
        </mxCell>
        <mxCell id="rUWtXKaS8bk8jJ0bzjvu-20" value="Клиенты" style="shape=component;align=left;spacingLeft=36;rounded=0;shadow=0;comic=0;labelBackgroundColor=none;strokeWidth=1;fontFamily=Verdana;fontSize=12;html=1;" vertex="1" parent="rUWtXKaS8bk8jJ0bzjvu-16">
          <mxGeometry x="50" y="60" width="150" height="60" as="geometry" />
        </mxCell>
        <mxCell id="rUWtXKaS8bk8jJ0bzjvu-22" value="Заказы" style="shape=component;align=left;spacingLeft=36;rounded=0;shadow=0;comic=0;labelBackgroundColor=none;strokeWidth=1;fontFamily=Verdana;fontSize=12;html=1;" vertex="1" parent="rUWtXKaS8bk8jJ0bzjvu-16">
          <mxGeometry x="50" y="150" width="150" height="60" as="geometry" />
        </mxCell>
        <mxCell id="rUWtXKaS8bk8jJ0bzjvu-21" value="Дистрибьюторы" style="shape=component;align=left;spacingLeft=36;rounded=0;shadow=0;comic=0;labelBackgroundColor=none;strokeWidth=1;fontFamily=Verdana;fontSize=12;html=1;" vertex="1" parent="rUWtXKaS8bk8jJ0bzjvu-16">
          <mxGeometry x="245" y="60" width="165" height="60" as="geometry" />
        </mxCell>
        <mxCell id="rUWtXKaS8bk8jJ0bzjvu-23" value="Каталог продукции" style="shape=component;align=left;spacingLeft=36;rounded=0;shadow=0;comic=0;labelBackgroundColor=none;strokeWidth=1;fontFamily=Verdana;fontSize=12;html=1;" vertex="1" parent="rUWtXKaS8bk8jJ0bzjvu-16">
          <mxGeometry x="245" y="150" width="165" height="60" as="geometry" />
        </mxCell>
        <mxCell id="rUWtXKaS8bk8jJ0bzjvu-28" value="&lt;font style=&quot;font-size: 18px;&quot;&gt;Клиенты&lt;/font&gt;" style="rounded=0;whiteSpace=wrap;html=1;fillColor=#fff2cc;strokeColor=#d6b656;" vertex="1" parent="1">
          <mxGeometry x="240" y="-180" width="150" height="60" as="geometry" />
        </mxCell>
        <mxCell id="rUWtXKaS8bk8jJ0bzjvu-67" style="rounded=0;orthogonalLoop=1;jettySize=auto;html=1;strokeWidth=3;entryX=0.769;entryY=-0.114;entryDx=0;entryDy=0;entryPerimeter=0;" edge="1" parent="1" source="rUWtXKaS8bk8jJ0bzjvu-29" target="rUWtXKaS8bk8jJ0bzjvu-30">
          <mxGeometry relative="1" as="geometry" />
        </mxCell>
        <mxCell id="rUWtXKaS8bk8jJ0bzjvu-29" value="&lt;font style=&quot;font-size: 18px;&quot;&gt;Дитрибьюторы&lt;/font&gt;" style="rounded=0;whiteSpace=wrap;html=1;fillColor=#fff2cc;strokeColor=#d6b656;" vertex="1" parent="1">
          <mxGeometry x="620" y="-180" width="170" height="60" as="geometry" />
        </mxCell>
        <mxCell id="rUWtXKaS8bk8jJ0bzjvu-69" style="edgeStyle=orthogonalEdgeStyle;rounded=0;orthogonalLoop=1;jettySize=auto;html=1;strokeWidth=3;" edge="1" parent="1" source="rUWtXKaS8bk8jJ0bzjvu-30">
          <mxGeometry relative="1" as="geometry">
            <mxPoint x="525" y="160" as="targetPoint" />
          </mxGeometry>
        </mxCell>
        <mxCell id="rUWtXKaS8bk8jJ0bzjvu-30" value="&lt;font style=&quot;font-size: 20px;&quot;&gt;&lt;b&gt;Традиционный шлюз. API Gateway&lt;/b&gt;&lt;/font&gt;" style="rounded=0;whiteSpace=wrap;html=1;fillColor=#dae8fc;strokeColor=#6c8ebf;" vertex="1" parent="1">
          <mxGeometry x="240" y="20" width="570" height="60" as="geometry" />
        </mxCell>
        <mxCell id="rUWtXKaS8bk8jJ0bzjvu-73" style="rounded=0;orthogonalLoop=1;jettySize=auto;html=1;entryX=0.5;entryY=0;entryDx=0;entryDy=0;exitX=0.802;exitY=1.052;exitDx=0;exitDy=0;exitPerimeter=0;strokeWidth=3;" edge="1" parent="1" source="rUWtXKaS8bk8jJ0bzjvu-31" target="rUWtXKaS8bk8jJ0bzjvu-7">
          <mxGeometry relative="1" as="geometry">
            <mxPoint x="900" y="510" as="sourcePoint" />
          </mxGeometry>
        </mxCell>
        <mxCell id="rUWtXKaS8bk8jJ0bzjvu-75" style="edgeStyle=orthogonalEdgeStyle;rounded=0;orthogonalLoop=1;jettySize=auto;html=1;strokeWidth=3;" edge="1" parent="1" source="rUWtXKaS8bk8jJ0bzjvu-31" target="rUWtXKaS8bk8jJ0bzjvu-9">
          <mxGeometry relative="1" as="geometry">
            <mxPoint x="1320" y="1110" as="targetPoint" />
            <Array as="points">
              <mxPoint x="1260" y="490" />
              <mxPoint x="1260" y="1010" />
            </Array>
          </mxGeometry>
        </mxCell>
        <mxCell id="rUWtXKaS8bk8jJ0bzjvu-31" value="&lt;font style=&quot;font-size: 20px;&quot;&gt;&lt;b&gt;Микросервисный API Gateways&lt;/b&gt;&lt;/font&gt;" style="rounded=0;whiteSpace=wrap;html=1;fillColor=#dae8fc;strokeColor=#6c8ebf;" vertex="1" parent="1">
          <mxGeometry x="-40" y="460" width="1180" height="60" as="geometry" />
        </mxCell>
        <mxCell id="rUWtXKaS8bk8jJ0bzjvu-50" value="" style="group" vertex="1" connectable="0" parent="1">
          <mxGeometry x="-40" y="580" width="500" height="290" as="geometry" />
        </mxCell>
        <mxCell id="rUWtXKaS8bk8jJ0bzjvu-5" value="" style="html=1;dropTarget=0;whiteSpace=wrap;fillColor=#d5e8d4;strokeColor=#82b366;align=left;" vertex="1" parent="rUWtXKaS8bk8jJ0bzjvu-50">
          <mxGeometry width="500" height="290" as="geometry" />
        </mxCell>
        <mxCell id="rUWtXKaS8bk8jJ0bzjvu-6" value="" style="shape=module;jettyWidth=8;jettyHeight=4;" vertex="1" parent="rUWtXKaS8bk8jJ0bzjvu-5">
          <mxGeometry x="1" width="20" height="20" relative="1" as="geometry">
            <mxPoint x="-27" y="7" as="offset" />
          </mxGeometry>
        </mxCell>
        <mxCell id="rUWtXKaS8bk8jJ0bzjvu-40" value="Управление &lt;br&gt;производством&amp;nbsp;" style="shape=component;align=left;spacingLeft=36;rounded=0;shadow=0;comic=0;labelBackgroundColor=none;strokeWidth=1;fontFamily=Verdana;fontSize=12;html=1;" vertex="1" parent="rUWtXKaS8bk8jJ0bzjvu-50">
          <mxGeometry x="10" y="60" width="160" height="60" as="geometry" />
        </mxCell>
        <mxCell id="rUWtXKaS8bk8jJ0bzjvu-41" value="Контроль качества" style="shape=component;align=left;spacingLeft=36;rounded=0;shadow=0;comic=0;labelBackgroundColor=none;strokeWidth=1;fontFamily=Verdana;fontSize=12;html=1;" vertex="1" parent="rUWtXKaS8bk8jJ0bzjvu-50">
          <mxGeometry x="200" y="60" width="160" height="60" as="geometry" />
        </mxCell>
        <mxCell id="rUWtXKaS8bk8jJ0bzjvu-42" value="Поставщики" style="shape=component;align=left;spacingLeft=36;rounded=0;shadow=0;comic=0;labelBackgroundColor=none;strokeWidth=1;fontFamily=Verdana;fontSize=12;html=1;" vertex="1" parent="rUWtXKaS8bk8jJ0bzjvu-50">
          <mxGeometry x="20" y="160" width="160" height="60" as="geometry" />
        </mxCell>
        <mxCell id="rUWtXKaS8bk8jJ0bzjvu-43" value="Iot" style="shape=component;align=left;spacingLeft=36;rounded=0;shadow=0;comic=0;labelBackgroundColor=none;strokeWidth=1;fontFamily=Verdana;fontSize=12;html=1;" vertex="1" parent="rUWtXKaS8bk8jJ0bzjvu-50">
          <mxGeometry x="210" y="160" width="160" height="60" as="geometry" />
        </mxCell>
        <mxCell id="rUWtXKaS8bk8jJ0bzjvu-49" value="&lt;span style=&quot;font-size: 18px;&quot;&gt;&lt;b&gt;Производство&lt;/b&gt;&lt;/span&gt;" style="text;html=1;strokeColor=none;fillColor=none;align=center;verticalAlign=middle;whiteSpace=wrap;rounded=0;" vertex="1" parent="rUWtXKaS8bk8jJ0bzjvu-50">
          <mxGeometry x="10" y="10" width="192.11" height="38.26" as="geometry" />
        </mxCell>
        <mxCell id="rUWtXKaS8bk8jJ0bzjvu-55" value="" style="group" vertex="1" connectable="0" parent="1">
          <mxGeometry x="360" y="960" width="440" height="290" as="geometry" />
        </mxCell>
        <mxCell id="rUWtXKaS8bk8jJ0bzjvu-9" value="&lt;div style=&quot;font-size: 14px;&quot;&gt;&lt;div style=&quot;border-color: var(--border-color);&quot;&gt;&lt;div style=&quot;border-color: var(--border-color);&quot;&gt;&lt;br&gt;&lt;/div&gt;&lt;/div&gt;&lt;/div&gt;" style="html=1;dropTarget=0;whiteSpace=wrap;fillColor=#d5e8d4;strokeColor=#82b366;align=left;" vertex="1" parent="rUWtXKaS8bk8jJ0bzjvu-55">
          <mxGeometry width="440" height="290" as="geometry" />
        </mxCell>
        <mxCell id="rUWtXKaS8bk8jJ0bzjvu-10" value="" style="shape=module;jettyWidth=8;jettyHeight=4;" vertex="1" parent="rUWtXKaS8bk8jJ0bzjvu-9">
          <mxGeometry x="1" width="20" height="20" relative="1" as="geometry">
            <mxPoint x="-27" y="7" as="offset" />
          </mxGeometry>
        </mxCell>
        <mxCell id="rUWtXKaS8bk8jJ0bzjvu-44" value="Склады готовой&amp;nbsp;&lt;br&gt;продукции" style="shape=component;align=left;spacingLeft=36;rounded=0;shadow=0;comic=0;labelBackgroundColor=none;strokeWidth=1;fontFamily=Verdana;fontSize=12;html=1;" vertex="1" parent="rUWtXKaS8bk8jJ0bzjvu-55">
          <mxGeometry x="20" y="90" width="160" height="60" as="geometry" />
        </mxCell>
        <mxCell id="rUWtXKaS8bk8jJ0bzjvu-46" value="&lt;font style=&quot;font-size: 18px;&quot;&gt;&lt;b&gt;Складская система&lt;/b&gt;&lt;/font&gt;" style="text;html=1;strokeColor=none;fillColor=none;align=center;verticalAlign=middle;whiteSpace=wrap;rounded=0;" vertex="1" parent="rUWtXKaS8bk8jJ0bzjvu-55">
          <mxGeometry y="21.74000000000001" width="192.11" height="38.26" as="geometry" />
        </mxCell>
        <mxCell id="rUWtXKaS8bk8jJ0bzjvu-47" value="Склады материалов" style="shape=component;align=left;spacingLeft=36;rounded=0;shadow=0;comic=0;labelBackgroundColor=none;strokeWidth=1;fontFamily=Verdana;fontSize=12;html=1;" vertex="1" parent="rUWtXKaS8bk8jJ0bzjvu-55">
          <mxGeometry x="20" y="170" width="170" height="60" as="geometry" />
        </mxCell>
        <mxCell id="rUWtXKaS8bk8jJ0bzjvu-51" value="Iot" style="shape=component;align=left;spacingLeft=36;rounded=0;shadow=0;comic=0;labelBackgroundColor=none;strokeWidth=1;fontFamily=Verdana;fontSize=12;html=1;" vertex="1" parent="rUWtXKaS8bk8jJ0bzjvu-55">
          <mxGeometry x="230" y="170" width="160" height="60" as="geometry" />
        </mxCell>
        <mxCell id="rUWtXKaS8bk8jJ0bzjvu-56" value="" style="group" vertex="1" connectable="0" parent="1">
          <mxGeometry x="680" y="580" width="450" height="290" as="geometry" />
        </mxCell>
        <mxCell id="rUWtXKaS8bk8jJ0bzjvu-7" value="&lt;div style=&quot;font-size: 14px;&quot;&gt;&lt;div style=&quot;border-color: var(--border-color);&quot;&gt;&lt;div style=&quot;border-color: var(--border-color);&quot;&gt;&lt;div style=&quot;border-color: var(--border-color);&quot;&gt;&lt;br&gt;&lt;/div&gt;&lt;/div&gt;&lt;/div&gt;&lt;/div&gt;" style="html=1;dropTarget=0;whiteSpace=wrap;fillColor=#d5e8d4;strokeColor=#82b366;align=left;" vertex="1" parent="rUWtXKaS8bk8jJ0bzjvu-56">
          <mxGeometry width="450" height="290" as="geometry" />
        </mxCell>
        <mxCell id="rUWtXKaS8bk8jJ0bzjvu-8" value="" style="shape=module;jettyWidth=8;jettyHeight=4;" vertex="1" parent="rUWtXKaS8bk8jJ0bzjvu-7">
          <mxGeometry x="1" width="20" height="20" relative="1" as="geometry">
            <mxPoint x="-27" y="7" as="offset" />
          </mxGeometry>
        </mxCell>
        <mxCell id="rUWtXKaS8bk8jJ0bzjvu-52" value="&lt;font style=&quot;font-size: 18px;&quot;&gt;&lt;b&gt;Логистика&lt;/b&gt;&lt;/font&gt;" style="text;html=1;strokeColor=none;fillColor=none;align=center;verticalAlign=middle;whiteSpace=wrap;rounded=0;" vertex="1" parent="rUWtXKaS8bk8jJ0bzjvu-56">
          <mxGeometry x="10" y="10" width="192.11" height="38.26" as="geometry" />
        </mxCell>
        <mxCell id="rUWtXKaS8bk8jJ0bzjvu-53" value="Клиентская &lt;br&gt;система доставки" style="shape=component;align=left;spacingLeft=36;rounded=0;shadow=0;comic=0;labelBackgroundColor=none;strokeWidth=1;fontFamily=Verdana;fontSize=12;html=1;" vertex="1" parent="rUWtXKaS8bk8jJ0bzjvu-56">
          <mxGeometry x="10" y="70" width="160" height="60" as="geometry" />
        </mxCell>
        <mxCell id="rUWtXKaS8bk8jJ0bzjvu-54" value="Внутренняя логистика" style="shape=component;align=left;spacingLeft=36;rounded=0;shadow=0;comic=0;labelBackgroundColor=none;strokeWidth=1;fontFamily=Verdana;fontSize=12;html=1;" vertex="1" parent="rUWtXKaS8bk8jJ0bzjvu-56">
          <mxGeometry x="10" y="170" width="250" height="60" as="geometry" />
        </mxCell>
        <mxCell id="rUWtXKaS8bk8jJ0bzjvu-60" style="edgeStyle=orthogonalEdgeStyle;rounded=0;orthogonalLoop=1;jettySize=auto;html=1;endArrow=none;endFill=0;" edge="1" parent="1" source="rUWtXKaS8bk8jJ0bzjvu-59">
          <mxGeometry relative="1" as="geometry">
            <mxPoint x="230" y="55" as="targetPoint" />
          </mxGeometry>
        </mxCell>
        <mxCell id="rUWtXKaS8bk8jJ0bzjvu-59" value="&lt;font color=&quot;#000000&quot; style=&quot;font-size: 22px;&quot;&gt;&lt;b&gt;&lt;br&gt;&lt;br&gt;&lt;br&gt;Традиционный шлюз API Gateway.&lt;/b&gt;&lt;br&gt;&lt;div style=&quot;font-weight: bold; text-align: left;&quot;&gt;&lt;b style=&quot;background-color: initial;&quot;&gt;Функции:&amp;nbsp;&lt;/b&gt;&lt;/div&gt;&lt;div style=&quot;text-align: left;&quot;&gt;&lt;ul style=&quot;&quot;&gt;&lt;li style=&quot;&quot;&gt;&lt;span style=&quot;background-color: initial;&quot;&gt;Предоставление доступа дистрибьюторам&lt;/span&gt;&lt;/li&gt;&lt;li style=&quot;&quot;&gt;Портал для дистрибьюторов&lt;/li&gt;&lt;li style=&quot;&quot;&gt;Управление жизненным циклом API&lt;/li&gt;&lt;li style=&quot;&quot;&gt;&lt;span style=&quot;background-color: initial;&quot;&gt;Сбор статистики по использованию клиентского API&amp;nbsp;&lt;/span&gt;&lt;/li&gt;&lt;/ul&gt;&lt;/div&gt;&lt;/font&gt;" style="shape=note;strokeWidth=2;fontSize=14;size=20;whiteSpace=wrap;html=1;fillColor=#FFF2CC;strokeColor=#d6b656;" vertex="1" parent="1">
          <mxGeometry x="-892" y="-74" width="690" height="260" as="geometry" />
        </mxCell>
        <mxCell id="rUWtXKaS8bk8jJ0bzjvu-61" style="rounded=0;orthogonalLoop=1;jettySize=auto;html=1;entryX=0.161;entryY=-0.009;entryDx=0;entryDy=0;entryPerimeter=0;startArrow=classic;startFill=1;strokeWidth=3;" edge="1" parent="1" source="rUWtXKaS8bk8jJ0bzjvu-5" target="rUWtXKaS8bk8jJ0bzjvu-9">
          <mxGeometry relative="1" as="geometry" />
        </mxCell>
        <mxCell id="rUWtXKaS8bk8jJ0bzjvu-62" style="edgeStyle=orthogonalEdgeStyle;rounded=0;orthogonalLoop=1;jettySize=auto;html=1;startArrow=classic;startFill=1;strokeWidth=3;" edge="1" parent="1" source="rUWtXKaS8bk8jJ0bzjvu-5" target="rUWtXKaS8bk8jJ0bzjvu-7">
          <mxGeometry relative="1" as="geometry" />
        </mxCell>
        <mxCell id="rUWtXKaS8bk8jJ0bzjvu-63" style="rounded=0;orthogonalLoop=1;jettySize=auto;html=1;endArrow=classic;endFill=1;startArrow=classic;startFill=1;strokeWidth=3;" edge="1" parent="1" source="rUWtXKaS8bk8jJ0bzjvu-9" target="rUWtXKaS8bk8jJ0bzjvu-7">
          <mxGeometry relative="1" as="geometry">
            <Array as="points">
              <mxPoint x="740" y="920" />
            </Array>
          </mxGeometry>
        </mxCell>
        <mxCell id="rUWtXKaS8bk8jJ0bzjvu-65" style="rounded=0;orthogonalLoop=1;jettySize=auto;html=1;entryX=0;entryY=0.5;entryDx=0;entryDy=0;endArrow=none;endFill=0;" edge="1" parent="1" source="rUWtXKaS8bk8jJ0bzjvu-64" target="rUWtXKaS8bk8jJ0bzjvu-31">
          <mxGeometry relative="1" as="geometry" />
        </mxCell>
        <mxCell id="rUWtXKaS8bk8jJ0bzjvu-64" value="&lt;div style=&quot;text-align: left;&quot;&gt;&lt;span style=&quot;font-size: 22px; background-color: initial;&quot;&gt;С развитием бизнеса количество клиентских приложений будет увеличиваться (мобильное приложение, сайт под другим брендом, сайт в другой стране), поэтому нужен единый канал/точка входа между клиентскими приложениями и внутренними.&lt;/span&gt;&lt;b style=&quot;font-size: 22px; background-color: initial;&quot;&gt;&amp;nbsp;&lt;/b&gt;&lt;span style=&quot;font-size: 22px; background-color: initial;&quot;&gt;Вводить API Gateway нужно только при наличии нескольких клиентских приложений.&amp;nbsp; &lt;/span&gt;&lt;b style=&quot;font-size: 22px; background-color: initial;&quot;&gt;&amp;nbsp; &amp;nbsp;&lt;/b&gt;&lt;/div&gt;&lt;font color=&quot;#000000&quot; style=&quot;font-size: 22px;&quot;&gt;&lt;b&gt;&lt;br&gt;Микросервисный API Gateway.&lt;/b&gt;&lt;br&gt;&lt;div style=&quot;font-weight: bold; text-align: left;&quot;&gt;&lt;b style=&quot;background-color: initial;&quot;&gt;Функции:&amp;nbsp;&lt;/b&gt;&lt;/div&gt;&lt;div style=&quot;text-align: left;&quot;&gt;&lt;ul style=&quot;&quot;&gt;&lt;li style=&quot;&quot;&gt;&lt;span style=&quot;background-color: initial;&quot;&gt;Предоставление доступа клиентским приложениям&lt;/span&gt;&lt;/li&gt;&lt;li style=&quot;&quot;&gt;Управление входящим трафиком к внутренним сервисам&lt;/li&gt;&lt;li style=&quot;&quot;&gt;Сбор технических метрих&amp;nbsp;&lt;/li&gt;&lt;/ul&gt;&lt;/div&gt;&lt;/font&gt;" style="shape=note;strokeWidth=2;fontSize=14;size=20;whiteSpace=wrap;html=1;fillColor=#FFF2CC;strokeColor=#d6b656;" vertex="1" parent="1">
          <mxGeometry x="-880" y="310" width="640" height="360" as="geometry" />
        </mxCell>
        <mxCell id="rUWtXKaS8bk8jJ0bzjvu-66" style="rounded=0;orthogonalLoop=1;jettySize=auto;html=1;entryX=0.152;entryY=0.029;entryDx=0;entryDy=0;entryPerimeter=0;strokeWidth=3;" edge="1" parent="1" source="rUWtXKaS8bk8jJ0bzjvu-28" target="rUWtXKaS8bk8jJ0bzjvu-30">
          <mxGeometry relative="1" as="geometry" />
        </mxCell>
        <mxCell id="rUWtXKaS8bk8jJ0bzjvu-70" style="rounded=0;orthogonalLoop=1;jettySize=auto;html=1;entryX=0.491;entryY=-0.043;entryDx=0;entryDy=0;entryPerimeter=0;strokeWidth=3;" edge="1" parent="1" source="rUWtXKaS8bk8jJ0bzjvu-2" target="rUWtXKaS8bk8jJ0bzjvu-31">
          <mxGeometry relative="1" as="geometry" />
        </mxCell>
        <mxCell id="rUWtXKaS8bk8jJ0bzjvu-72" style="edgeStyle=orthogonalEdgeStyle;rounded=0;orthogonalLoop=1;jettySize=auto;html=1;entryX=0.576;entryY=0.011;entryDx=0;entryDy=0;entryPerimeter=0;strokeWidth=3;" edge="1" parent="1" source="rUWtXKaS8bk8jJ0bzjvu-31" target="rUWtXKaS8bk8jJ0bzjvu-5">
          <mxGeometry relative="1" as="geometry">
            <Array as="points">
              <mxPoint x="248" y="530" />
              <mxPoint x="248" y="530" />
            </Array>
          </mxGeometry>
        </mxCell>
      </root>
    </mxGraphModel>
  </diagram>
</mxfile>
